<svg xmlns="http://www.w3.org/2000/svg" viewBox="0 0 1200 630" role="img" aria-label="Striping and safety category graphic">
  <rect width="1200" height="630" fill="#0d0e10"/>
  <g stroke="#f2f1ed" stroke-width="16" stroke-linecap="round">
    <path d="M260 630 460 60"/>
    <path d="M520 630 600 60"/>
    <path d="M780 630 740 60"/>
  </g>
  <path d="M100 630 320 60" stroke="#ffc933" stroke-width="16" stroke-linecap="round"/>
  <path d="M100 630 320 60" stroke="#ffc933" stroke-width="44" stroke-linecap="round" opacity="0.14"/>
  <!-- ADA -->
  <g transform="translate(960,300)" fill="none" stroke="#5b9bd5" stroke-width="11" stroke-linecap="round">
    <circle cx="0" cy="-64" r="20"/>
    <path d="M0 -36v52l34 46M0 -8h42M-16 8a46 46 0 1 0 66 54"/>
  </g>
  <!-- cones -->
  <g>
    <path d="M880 596l22-54 22 54z" fill="#f47921"/><rect x="872" y="590" width="62" height="12" fill="#c95a0e"/>
    <path d="M1060 596l18-44 18 44z" fill="#f47921"/><rect x="1052" y="590" width="54" height="10" fill="#c95a0e"/>
  </g>
  <text x="64" y="560" font-family="Barlow Condensed, Arial Narrow, Arial, sans-serif" font-size="58" font-weight="800" letter-spacing="10" fill="#f2f1ed" opacity="0.16">STRIPING</text>
</svg>
